<svg xmlns="http://www.w3.org/2000/svg" viewBox="0 0 400 400">
  <defs>
    <clipPath id="sq" clipPathUnits="userSpaceOnUse"><path d="M 256.0000 0 c 50.4047 0 75.6071 0 94.8591 9.8094 a 90.0000 90.0000 0 0 1 39.3314 39.3314 c 9.8094 19.2521 9.8094 44.4544 9.8094 94.8591 L 400.0000 256.0000 c 0 50.4047 0 75.6071 -9.8094 94.8591 a 90.0000 90.0000 0 0 1 -39.3314 39.3314 c -19.2521 9.8094 -44.4544 9.8094 -94.8591 9.8094 L 144.0000 400.0000 c -50.4047 0 -75.6071 0 -94.8591 -9.8094 a 90.0000 90.0000 0 0 1 -39.3314 -39.3314 c -9.8094 -19.2521 -9.8094 -44.4544 -9.8094 -94.8591 L 0 144.0000 c 0 -50.4047 0 -75.6071 9.8094 -94.8591 a 90.0000 90.0000 0 0 1 39.3314 -39.3314 c 19.2521 -9.8094 44.4544 -9.8094 94.8591 -9.8094 Z"/></clipPath>
    <mask id="star" maskUnits="userSpaceOnUse" x="-60" y="-60" width="520" height="520">
      <polygon points="188.44,207.15 163.19,314.08 56.26,288.84 81.50,181.90" fill="#FFFFFF"/>
      <circle cx="256.18" cy="279.59" r="99.18" fill="#000000"/>
      <circle cx="90.75" cy="381.83" r="99.18" fill="#000000"/>
      <circle cx="-11.49" cy="216.40" r="99.18" fill="#000000"/>
      <circle cx="153.94" cy="114.16" r="99.18" fill="#000000"/>
    </mask>
  </defs>
  <path d="M 256.0000 0 c 50.4047 0 75.6071 0 94.8591 9.8094 a 90.0000 90.0000 0 0 1 39.3314 39.3314 c 9.8094 19.2521 9.8094 44.4544 9.8094 94.8591 L 400.0000 256.0000 c 0 50.4047 0 75.6071 -9.8094 94.8591 a 90.0000 90.0000 0 0 1 -39.3314 39.3314 c -19.2521 9.8094 -44.4544 9.8094 -94.8591 9.8094 L 144.0000 400.0000 c -50.4047 0 -75.6071 0 -94.8591 -9.8094 a 90.0000 90.0000 0 0 1 -39.3314 -39.3314 c -9.8094 -19.2521 -9.8094 -44.4544 -9.8094 -94.8591 L 0 144.0000 c 0 -50.4047 0 -75.6071 9.8094 -94.8591 a 90.0000 90.0000 0 0 1 39.3314 -39.3314 c 19.2521 -9.8094 44.4544 -9.8094 94.8591 -9.8094 Z" fill="#FFFFFF"/>
  <g clip-path="url(#sq)">
    <rect x="-60" y="-60" width="520" height="520" fill="#000000" mask="url(#star)"/>
    <g transform="rotate(-31.717 295.013798005 141.276857495)"><rect x="239.45" y="136.07" width="111.13" height="10.42" rx="5.21" ry="5.21" fill="#000000"/></g>
  </g>
</svg>
